<mxfile host="Electron" modified="2024-01-01T14:38:55.562Z" agent="Mozilla/5.0 (Macintosh; Intel Mac OS X 10_15_7) AppleWebKit/537.36 (KHTML, like Gecko) draw.io/22.1.16 Chrome/120.0.6099.109 Electron/28.1.0 Safari/537.36" etag="VbZgrqzRrUD1cDMWG4vs" version="22.1.16" type="device">
  <diagram name="main" id="m0zTKrYATkNEm8Ja8VeW">
    <mxGraphModel dx="1243" dy="761" grid="1" gridSize="10" guides="1" tooltips="1" connect="1" arrows="1" fold="1" page="1" pageScale="1" pageWidth="850" pageHeight="1100" math="0" shadow="0">
      <root>
        <mxCell id="0" />
        <mxCell id="1" parent="0" />
        <mxCell id="GZ_4_-aFKaLcyj-fTqnw-7" style="edgeStyle=orthogonalEdgeStyle;shape=connector;rounded=1;jumpStyle=arc;orthogonalLoop=1;jettySize=auto;html=1;exitX=1;exitY=0.5;exitDx=0;exitDy=0;exitPerimeter=0;entryX=0;entryY=0.5;entryDx=0;entryDy=0;entryPerimeter=0;labelBackgroundColor=default;strokeColor=#666666;strokeWidth=2;fontFamily=Helvetica;fontSize=11;fontColor=default;endArrow=classic;fillColor=#f5f5f5;opacity=90;" parent="1" source="GZ_4_-aFKaLcyj-fTqnw-12" target="aZxXlgppM9aiWmMxKNXG-2" edge="1">
          <mxGeometry relative="1" as="geometry" />
        </mxCell>
        <mxCell id="GZ_4_-aFKaLcyj-fTqnw-8" style="edgeStyle=orthogonalEdgeStyle;shape=connector;rounded=1;jumpStyle=arc;orthogonalLoop=1;jettySize=auto;html=1;exitX=1;exitY=0.5;exitDx=0;exitDy=0;exitPerimeter=0;entryX=0;entryY=0.5;entryDx=0;entryDy=0;entryPerimeter=0;labelBackgroundColor=default;strokeColor=#666666;strokeWidth=1;fontFamily=Helvetica;fontSize=11;fontColor=default;endArrow=classic;fillColor=#f5f5f5;opacity=30;" parent="1" source="GZ_4_-aFKaLcyj-fTqnw-12" target="8sPokwG7ZS4xX1ijZ1ix-16" edge="1">
          <mxGeometry relative="1" as="geometry">
            <mxPoint x="183.25" y="260" as="targetPoint" />
          </mxGeometry>
        </mxCell>
        <mxCell id="GZ_4_-aFKaLcyj-fTqnw-9" style="edgeStyle=orthogonalEdgeStyle;shape=connector;rounded=1;jumpStyle=none;orthogonalLoop=1;jettySize=auto;html=1;exitX=1;exitY=0.5;exitDx=0;exitDy=0;exitPerimeter=0;entryX=0;entryY=0.5;entryDx=0;entryDy=0;entryPerimeter=0;labelBackgroundColor=default;strokeColor=#666666;strokeWidth=1;fontFamily=Helvetica;fontSize=11;fontColor=default;endArrow=classic;fillColor=#f5f5f5;opacity=30;" parent="1" source="GZ_4_-aFKaLcyj-fTqnw-12" target="8sPokwG7ZS4xX1ijZ1ix-12" edge="1">
          <mxGeometry relative="1" as="geometry">
            <mxPoint x="183.25" y="170" as="targetPoint" />
          </mxGeometry>
        </mxCell>
        <mxCell id="GZ_4_-aFKaLcyj-fTqnw-10" style="edgeStyle=orthogonalEdgeStyle;shape=connector;rounded=1;jumpStyle=none;orthogonalLoop=1;jettySize=auto;html=1;exitX=1;exitY=0.5;exitDx=0;exitDy=0;exitPerimeter=0;entryX=0;entryY=0.5;entryDx=0;entryDy=0;entryPerimeter=0;labelBackgroundColor=default;strokeColor=#666666;strokeWidth=1;fontFamily=Helvetica;fontSize=11;fontColor=default;endArrow=classic;fillColor=#f5f5f5;opacity=30;" parent="1" source="GZ_4_-aFKaLcyj-fTqnw-12" target="8sPokwG7ZS4xX1ijZ1ix-3" edge="1">
          <mxGeometry relative="1" as="geometry">
            <mxPoint x="183.25" y="60" as="targetPoint" />
            <Array as="points">
              <mxPoint x="160" y="398" />
              <mxPoint x="160" y="260" />
            </Array>
          </mxGeometry>
        </mxCell>
        <mxCell id="GZ_4_-aFKaLcyj-fTqnw-11" style="edgeStyle=orthogonalEdgeStyle;rounded=1;orthogonalLoop=1;jettySize=auto;html=1;exitX=1;exitY=0.5;exitDx=0;exitDy=0;exitPerimeter=0;entryX=0;entryY=0.5;entryDx=0;entryDy=0;entryPerimeter=0;opacity=30;" parent="1" source="GZ_4_-aFKaLcyj-fTqnw-12" target="8sPokwG7ZS4xX1ijZ1ix-8" edge="1">
          <mxGeometry relative="1" as="geometry">
            <mxPoint x="183.25" y="350" as="targetPoint" />
          </mxGeometry>
        </mxCell>
        <mxCell id="GZ_4_-aFKaLcyj-fTqnw-12" value="input" style="rhombus;whiteSpace=wrap;html=1;rounded=1;fontStyle=1;glass=0;sketch=0;fontSize=12;points=[[0,0.5,0,0,0],[0.5,0,0,0,0],[0.5,1,0,0,0],[1,0.5,0,0,0]];shadow=1;fontFamily=Helvetica;fontColor=default;" parent="1" vertex="1">
          <mxGeometry x="40" y="357.5" width="80" height="80" as="geometry" />
        </mxCell>
        <mxCell id="GZ_4_-aFKaLcyj-fTqnw-13" value="output" style="rhombus;whiteSpace=wrap;html=1;rounded=1;fillColor=#0050ef;fontColor=#ffffff;strokeColor=#001DBC;fontStyle=1;glass=0;sketch=0;fontSize=12;points=[[0,0.5,0,0,0],[0.5,0,0,0,0],[0.5,1,0,0,0],[1,0.5,0,0,0]];shadow=1;fontFamily=Helvetica;" parent="1" vertex="1">
          <mxGeometry x="750" y="260" width="80" height="80" as="geometry" />
        </mxCell>
        <mxCell id="GZ_4_-aFKaLcyj-fTqnw-14" value="Transpile" style="rounded=1;whiteSpace=wrap;html=1;sketch=0;container=1;recursiveResize=0;verticalAlign=top;arcSize=6;fontStyle=1;autosize=0;points=[];absoluteArcSize=1;shadow=1;strokeColor=#001DBC;fillColor=#0050ef;fontColor=#ffffff;fontFamily=Helvetica;fontSize=11;" parent="1" vertex="1">
          <mxGeometry x="500" y="220" width="130" height="210" as="geometry">
            <mxRectangle x="-98" y="-1230" width="99" height="26" as="alternateBounds" />
          </mxGeometry>
        </mxCell>
        <mxCell id="GZ_4_-aFKaLcyj-fTqnw-15" value="ohmfn" style="rounded=1;whiteSpace=wrap;html=1;sketch=0;points=[[0,0.5,0,0,0],[1,0.5,0,0,0]];arcSize=50;fontFamily=Helvetica;fontSize=11;fontColor=default;fontStyle=0" parent="GZ_4_-aFKaLcyj-fTqnw-14" vertex="1">
          <mxGeometry x="-17" y="57.5" width="66" height="25" as="geometry" />
        </mxCell>
        <mxCell id="GZ_4_-aFKaLcyj-fTqnw-16" value="output" style="rounded=1;whiteSpace=wrap;html=1;sketch=0;points=[[0,0.5,0,0,0],[1,0.5,0,0,0]];fillColor=#1ba1e2;fontColor=#ffffff;strokeColor=#006EAF;arcSize=50;fontFamily=Helvetica;fontSize=11;" parent="GZ_4_-aFKaLcyj-fTqnw-14" vertex="1">
          <mxGeometry x="84.75" y="27.5" width="66" height="25" as="geometry" />
        </mxCell>
        <mxCell id="GZ_4_-aFKaLcyj-fTqnw-17" value="error" style="rounded=1;whiteSpace=wrap;html=1;sketch=0;points=[[0,0.5,0,0,0],[1,0.5,0,0,0]];fillColor=#1ba1e2;fontColor=#ffffff;strokeColor=#006EAF;arcSize=50;fontFamily=Helvetica;fontSize=11;" parent="GZ_4_-aFKaLcyj-fTqnw-14" vertex="1">
          <mxGeometry x="84.75" y="70" width="66" height="25" as="geometry" />
        </mxCell>
        <mxCell id="GZ_4_-aFKaLcyj-fTqnw-18" value="rwrfn" style="rounded=1;whiteSpace=wrap;html=1;sketch=0;points=[[0,0.5,0,0,0],[1,0.5,0,0,0]];arcSize=50;fontFamily=Helvetica;fontSize=11;fontColor=default;" parent="GZ_4_-aFKaLcyj-fTqnw-14" vertex="1">
          <mxGeometry x="-17" y="92.5" width="66" height="25" as="geometry" />
        </mxCell>
        <mxCell id="GZ_4_-aFKaLcyj-fTqnw-19" value="input" style="rounded=1;whiteSpace=wrap;html=1;sketch=0;points=[[0,0.5,0,0,0],[1,0.5,0,0,0]];arcSize=50;fontFamily=Helvetica;fontSize=11;fontColor=default;" parent="GZ_4_-aFKaLcyj-fTqnw-14" vertex="1">
          <mxGeometry x="-17" y="165" width="66" height="25" as="geometry" />
        </mxCell>
        <mxCell id="GZ_4_-aFKaLcyj-fTqnw-20" value="grammar name" style="rounded=1;whiteSpace=wrap;html=1;sketch=0;points=[[0,0.5,0,0,0],[1,0.5,0,0,0]];arcSize=50;fontFamily=Helvetica;fontSize=11;fontColor=default;" parent="GZ_4_-aFKaLcyj-fTqnw-14" vertex="1">
          <mxGeometry x="-16" y="27.5" width="66" height="25" as="geometry" />
        </mxCell>
        <mxCell id="GZ_4_-aFKaLcyj-fTqnw-21" value="rwrsupportfn" style="rounded=1;whiteSpace=wrap;html=1;sketch=0;points=[[0,0.5,0,0,0],[1,0.5,0,0,0]];arcSize=50;fontFamily=Helvetica;fontSize=11;fontColor=default;" parent="GZ_4_-aFKaLcyj-fTqnw-14" vertex="1">
          <mxGeometry x="-17" y="127.5" width="66" height="25" as="geometry" />
        </mxCell>
        <mxCell id="GZ_4_-aFKaLcyj-fTqnw-24" style="edgeStyle=orthogonalEdgeStyle;shape=connector;rounded=1;jumpStyle=arc;orthogonalLoop=1;jettySize=auto;html=1;exitX=1;exitY=0.5;exitDx=0;exitDy=0;exitPerimeter=0;entryX=0;entryY=0.5;entryDx=0;entryDy=0;entryPerimeter=0;labelBackgroundColor=default;strokeColor=#666666;strokeWidth=2;fontFamily=Helvetica;fontSize=11;fontColor=default;endArrow=classic;fillColor=#f5f5f5;opacity=90;" parent="1" source="GZ_4_-aFKaLcyj-fTqnw-16" target="GZ_4_-aFKaLcyj-fTqnw-13" edge="1">
          <mxGeometry relative="1" as="geometry" />
        </mxCell>
        <mxCell id="GZ_4_-aFKaLcyj-fTqnw-25" value="error" style="rhombus;whiteSpace=wrap;html=1;rounded=1;fillColor=#0050ef;fontColor=#ffffff;strokeColor=#001DBC;fontStyle=1;glass=0;sketch=0;fontSize=12;points=[[0,0.5,0,0,0],[0.5,0,0,0,0],[0.5,1,0,0,0],[1,0.5,0,0,0]];shadow=1;fontFamily=Helvetica;" parent="1" vertex="1">
          <mxGeometry x="750" y="400" width="80" height="80" as="geometry" />
        </mxCell>
        <mxCell id="GZ_4_-aFKaLcyj-fTqnw-26" style="edgeStyle=orthogonalEdgeStyle;shape=connector;rounded=1;jumpStyle=arc;orthogonalLoop=1;jettySize=auto;html=1;exitX=1;exitY=0.5;exitDx=0;exitDy=0;exitPerimeter=0;entryX=0;entryY=0.5;entryDx=0;entryDy=0;entryPerimeter=0;labelBackgroundColor=default;strokeColor=#666666;strokeWidth=1;fontFamily=Helvetica;fontSize=11;fontColor=default;endArrow=classic;fillColor=#f5f5f5;opacity=90;" parent="1" source="GZ_4_-aFKaLcyj-fTqnw-17" target="GZ_4_-aFKaLcyj-fTqnw-25" edge="1">
          <mxGeometry relative="1" as="geometry" />
        </mxCell>
        <mxCell id="aZxXlgppM9aiWmMxKNXG-1" value="Read Text File" style="rounded=1;whiteSpace=wrap;html=1;sketch=0;container=1;recursiveResize=0;verticalAlign=top;arcSize=6;fontStyle=1;autosize=0;points=[];absoluteArcSize=1;shadow=1;strokeColor=#001DBC;fillColor=#0050ef;fontColor=#ffffff;fontFamily=Helvetica;fontSize=11;" parent="1" vertex="1">
          <mxGeometry x="200" y="420" width="130" height="110" as="geometry">
            <mxRectangle x="-98" y="-1230" width="99" height="26" as="alternateBounds" />
          </mxGeometry>
        </mxCell>
        <mxCell id="aZxXlgppM9aiWmMxKNXG-2" value="input" style="rounded=1;whiteSpace=wrap;html=1;sketch=0;points=[[0,0.5,0,0,0],[1,0.5,0,0,0]];arcSize=50;fontFamily=Helvetica;fontSize=11;fontColor=default;" parent="aZxXlgppM9aiWmMxKNXG-1" vertex="1">
          <mxGeometry x="-16.75" y="27.5" width="66" height="25" as="geometry" />
        </mxCell>
        <mxCell id="aZxXlgppM9aiWmMxKNXG-3" value="str" style="rounded=1;whiteSpace=wrap;html=1;sketch=0;points=[[0,0.5,0,0,0],[1,0.5,0,0,0]];fillColor=#1ba1e2;fontColor=#ffffff;strokeColor=#006EAF;arcSize=50;fontFamily=Helvetica;fontSize=11;" parent="aZxXlgppM9aiWmMxKNXG-1" vertex="1">
          <mxGeometry x="84.75" y="27.5" width="66" height="25" as="geometry" />
        </mxCell>
        <mxCell id="aZxXlgppM9aiWmMxKNXG-4" value="error" style="rounded=1;whiteSpace=wrap;html=1;sketch=0;points=[[0,0.5,0,0,0],[1,0.5,0,0,0]];fillColor=#1ba1e2;fontColor=#ffffff;strokeColor=#006EAF;arcSize=50;fontFamily=Helvetica;fontSize=11;textOpacity=30;opacity=30;" parent="aZxXlgppM9aiWmMxKNXG-1" vertex="1">
          <mxGeometry x="84.75" y="70" width="66" height="25" as="geometry" />
        </mxCell>
        <mxCell id="aZxXlgppM9aiWmMxKNXG-5" style="edgeStyle=orthogonalEdgeStyle;rounded=1;orthogonalLoop=1;jettySize=auto;html=1;exitX=1;exitY=0.5;exitDx=0;exitDy=0;exitPerimeter=0;entryX=0;entryY=0.5;entryDx=0;entryDy=0;entryPerimeter=0;strokeWidth=2;" parent="1" source="aZxXlgppM9aiWmMxKNXG-3" target="GZ_4_-aFKaLcyj-fTqnw-19" edge="1">
          <mxGeometry relative="1" as="geometry" />
        </mxCell>
        <mxCell id="aZxXlgppM9aiWmMxKNXG-6" style="edgeStyle=orthogonalEdgeStyle;rounded=1;orthogonalLoop=1;jettySize=auto;html=1;exitX=1;exitY=0.5;exitDx=0;exitDy=0;exitPerimeter=0;entryX=0;entryY=0.5;entryDx=0;entryDy=0;entryPerimeter=0;" parent="1" source="aZxXlgppM9aiWmMxKNXG-4" target="GZ_4_-aFKaLcyj-fTqnw-25" edge="1">
          <mxGeometry relative="1" as="geometry">
            <Array as="points">
              <mxPoint x="700" y="503" />
              <mxPoint x="700" y="440" />
            </Array>
          </mxGeometry>
        </mxCell>
        <mxCell id="8sPokwG7ZS4xX1ijZ1ix-1" value="&#39;ABC&#39;" style="rounded=1;whiteSpace=wrap;html=1;sketch=0;container=1;recursiveResize=0;verticalAlign=middle;arcSize=6;fontStyle=1;autosize=0;points=[];absoluteArcSize=1;shadow=0;strokeColor=#6c8ebf;fillColor=#dae8fc;fontFamily=Helvetica;fontSize=11;gradientColor=#E6E6E6;" parent="1" vertex="1">
          <mxGeometry x="220" y="250" width="110" height="20" as="geometry">
            <mxRectangle x="-98" y="-1230" width="99" height="26" as="alternateBounds" />
          </mxGeometry>
        </mxCell>
        <mxCell id="8sPokwG7ZS4xX1ijZ1ix-2" value="⍺" style="rounded=1;whiteSpace=wrap;html=1;sketch=0;points=[[0,0.5,0,0,0],[1,0.5,0,0,0]];arcSize=50;fontFamily=Helvetica;fontSize=11;fontColor=default;" parent="8sPokwG7ZS4xX1ijZ1ix-1" vertex="1">
          <mxGeometry x="100" y="3.75" width="20" height="12.5" as="geometry" />
        </mxCell>
        <mxCell id="8sPokwG7ZS4xX1ijZ1ix-3" value="⍺" style="rounded=1;whiteSpace=wrap;html=1;sketch=0;points=[[0,0.5,0,0,0],[1,0.5,0,0,0]];arcSize=50;fontFamily=Helvetica;fontSize=11;fontColor=default;" parent="8sPokwG7ZS4xX1ijZ1ix-1" vertex="1">
          <mxGeometry x="-10" y="3.75" width="20" height="12.5" as="geometry" />
        </mxCell>
        <mxCell id="8sPokwG7ZS4xX1ijZ1ix-6" value="&#39;demo/demo_abcjs/null.js&#39;" style="rounded=1;whiteSpace=wrap;html=1;sketch=0;container=1;recursiveResize=0;verticalAlign=middle;arcSize=6;fontStyle=1;autosize=0;points=[];absoluteArcSize=1;shadow=0;strokeColor=#6c8ebf;fillColor=#dae8fc;fontFamily=Helvetica;fontSize=11;gradientColor=#E6E6E6;" parent="1" vertex="1">
          <mxGeometry x="210" y="350" width="200" height="20" as="geometry">
            <mxRectangle x="-98" y="-1230" width="99" height="26" as="alternateBounds" />
          </mxGeometry>
        </mxCell>
        <mxCell id="8sPokwG7ZS4xX1ijZ1ix-7" value="⍺" style="rounded=1;whiteSpace=wrap;html=1;sketch=0;points=[[0,0.5,0,0,0],[1,0.5,0,0,0]];arcSize=50;fontFamily=Helvetica;fontSize=11;fontColor=default;" parent="8sPokwG7ZS4xX1ijZ1ix-6" vertex="1">
          <mxGeometry x="190" y="3.75" width="20" height="12.5" as="geometry" />
        </mxCell>
        <mxCell id="8sPokwG7ZS4xX1ijZ1ix-8" value="⍺" style="rounded=1;whiteSpace=wrap;html=1;sketch=0;points=[[0,0.5,0,0,0],[1,0.5,0,0,0]];arcSize=50;fontFamily=Helvetica;fontSize=11;fontColor=default;" parent="8sPokwG7ZS4xX1ijZ1ix-6" vertex="1">
          <mxGeometry x="-10" y="3.75" width="20" height="12.5" as="geometry" />
        </mxCell>
        <mxCell id="8sPokwG7ZS4xX1ijZ1ix-9" style="edgeStyle=orthogonalEdgeStyle;shape=connector;rounded=1;orthogonalLoop=1;jettySize=auto;html=1;entryX=0;entryY=0.5;entryDx=0;entryDy=0;entryPerimeter=0;labelBackgroundColor=default;strokeColor=default;strokeWidth=2;align=center;verticalAlign=middle;fontFamily=Helvetica;fontSize=11;fontColor=default;endArrow=classic;" parent="1" source="8sPokwG7ZS4xX1ijZ1ix-7" target="GZ_4_-aFKaLcyj-fTqnw-21" edge="1">
          <mxGeometry relative="1" as="geometry" />
        </mxCell>
        <mxCell id="8sPokwG7ZS4xX1ijZ1ix-10" value="&#39;demo/demo_abcjs/abc.ohm&#39;" style="rounded=1;whiteSpace=wrap;html=1;sketch=0;container=1;recursiveResize=0;verticalAlign=middle;arcSize=6;fontStyle=1;autosize=0;points=[];absoluteArcSize=1;shadow=0;strokeColor=#6c8ebf;fillColor=#dae8fc;fontFamily=Helvetica;fontSize=11;gradientColor=#E6E6E6;" parent="1" vertex="1">
          <mxGeometry x="210" y="280" width="200" height="20" as="geometry">
            <mxRectangle x="-98" y="-1230" width="99" height="26" as="alternateBounds" />
          </mxGeometry>
        </mxCell>
        <mxCell id="8sPokwG7ZS4xX1ijZ1ix-11" value="⍺" style="rounded=1;whiteSpace=wrap;html=1;sketch=0;points=[[0,0.5,0,0,0],[1,0.5,0,0,0]];arcSize=50;fontFamily=Helvetica;fontSize=11;fontColor=default;" parent="8sPokwG7ZS4xX1ijZ1ix-10" vertex="1">
          <mxGeometry x="190" y="3.75" width="20" height="12.5" as="geometry" />
        </mxCell>
        <mxCell id="8sPokwG7ZS4xX1ijZ1ix-12" value="⍺" style="rounded=1;whiteSpace=wrap;html=1;sketch=0;points=[[0,0.5,0,0,0],[1,0.5,0,0,0]];arcSize=50;fontFamily=Helvetica;fontSize=11;fontColor=default;" parent="8sPokwG7ZS4xX1ijZ1ix-10" vertex="1">
          <mxGeometry x="-10" y="3.75" width="20" height="12.5" as="geometry" />
        </mxCell>
        <mxCell id="8sPokwG7ZS4xX1ijZ1ix-13" style="edgeStyle=orthogonalEdgeStyle;shape=connector;rounded=1;orthogonalLoop=1;jettySize=auto;html=1;exitX=1;exitY=0.5;exitDx=0;exitDy=0;exitPerimeter=0;entryX=0;entryY=0.5;entryDx=0;entryDy=0;entryPerimeter=0;labelBackgroundColor=default;strokeColor=default;strokeWidth=2;align=center;verticalAlign=middle;fontFamily=Helvetica;fontSize=11;fontColor=default;endArrow=classic;" parent="1" source="8sPokwG7ZS4xX1ijZ1ix-11" target="GZ_4_-aFKaLcyj-fTqnw-15" edge="1">
          <mxGeometry relative="1" as="geometry">
            <Array as="points">
              <mxPoint x="450" y="290" />
              <mxPoint x="450" y="290" />
            </Array>
          </mxGeometry>
        </mxCell>
        <mxCell id="8sPokwG7ZS4xX1ijZ1ix-14" value="&#39;demo/demo_abcjs/abcjs.rwr&#39;" style="rounded=1;whiteSpace=wrap;html=1;sketch=0;container=1;recursiveResize=0;verticalAlign=middle;arcSize=6;fontStyle=1;autosize=0;points=[];absoluteArcSize=1;shadow=0;strokeColor=#6c8ebf;fillColor=#dae8fc;fontFamily=Helvetica;fontSize=11;gradientColor=#E6E6E6;" parent="1" vertex="1">
          <mxGeometry x="210" y="315" width="200" height="20" as="geometry">
            <mxRectangle x="-98" y="-1230" width="99" height="26" as="alternateBounds" />
          </mxGeometry>
        </mxCell>
        <mxCell id="8sPokwG7ZS4xX1ijZ1ix-15" value="⍺" style="rounded=1;whiteSpace=wrap;html=1;sketch=0;points=[[0,0.5,0,0,0],[1,0.5,0,0,0]];arcSize=50;fontFamily=Helvetica;fontSize=11;fontColor=default;" parent="8sPokwG7ZS4xX1ijZ1ix-14" vertex="1">
          <mxGeometry x="190" y="3.75" width="20" height="12.5" as="geometry" />
        </mxCell>
        <mxCell id="8sPokwG7ZS4xX1ijZ1ix-16" value="⍺" style="rounded=1;whiteSpace=wrap;html=1;sketch=0;points=[[0,0.5,0,0,0],[1,0.5,0,0,0]];arcSize=50;fontFamily=Helvetica;fontSize=11;fontColor=default;" parent="8sPokwG7ZS4xX1ijZ1ix-14" vertex="1">
          <mxGeometry x="-10" y="3.75" width="20" height="12.5" as="geometry" />
        </mxCell>
        <mxCell id="8sPokwG7ZS4xX1ijZ1ix-18" style="edgeStyle=orthogonalEdgeStyle;shape=connector;rounded=1;orthogonalLoop=1;jettySize=auto;html=1;labelBackgroundColor=default;strokeColor=default;strokeWidth=2;align=center;verticalAlign=middle;fontFamily=Helvetica;fontSize=11;fontColor=default;endArrow=classic;" parent="1" source="8sPokwG7ZS4xX1ijZ1ix-15" target="GZ_4_-aFKaLcyj-fTqnw-18" edge="1">
          <mxGeometry relative="1" as="geometry" />
        </mxCell>
        <mxCell id="8sPokwG7ZS4xX1ijZ1ix-19" style="edgeStyle=orthogonalEdgeStyle;shape=connector;rounded=1;orthogonalLoop=1;jettySize=auto;html=1;exitX=1;exitY=0.5;exitDx=0;exitDy=0;exitPerimeter=0;entryX=0;entryY=0.5;entryDx=0;entryDy=0;entryPerimeter=0;labelBackgroundColor=default;strokeColor=default;strokeWidth=2;align=center;verticalAlign=middle;fontFamily=Helvetica;fontSize=11;fontColor=default;endArrow=classic;" parent="1" source="8sPokwG7ZS4xX1ijZ1ix-2" target="GZ_4_-aFKaLcyj-fTqnw-20" edge="1">
          <mxGeometry relative="1" as="geometry" />
        </mxCell>
      </root>
    </mxGraphModel>
  </diagram>
</mxfile>
